<?xml version="1.0" encoding="iso-8859-1"?>
<!-- Generator: Adobe Illustrator 19.0.0, SVG Export Plug-In . SVG Version: 6.00 Build 0)  -->
<svg version="1.1" id="Layer_1" xmlns="http://www.w3.org/2000/svg" xmlns:xlink="http://www.w3.org/1999/xlink" x="0px" y="0px"
	 viewBox="0 0 512 512" style="enable-background:new 0 0 512 512;" xml:space="preserve">
<rect x="133.818" y="116.364" style="fill:#88888F;" width="34.909" height="116.364"/>
<rect x="343.273" y="116.364" style="fill:#797781;" width="34.909" height="116.364"/>
<path style="fill:#E02753;" d="M512,23.273C473.659,36.83,377.594,69.818,256,69.818S38.341,36.83,0,23.273l15.914,93.091
	C54.255,129.921,134.407,139.636,256,139.636s201.745-9.715,240.086-23.273L512,23.273z"/>
<path style="fill:#C5142C;" d="M256,69.818v69.818c121.594,0,201.745-9.715,240.086-23.273L512,23.273
	C473.659,36.83,377.594,69.818,256,69.818z"/>
<rect x="116.364" y="267.636" style="fill:#E07188;" width="69.818" height="221.091"/>
<g>
	<rect x="325.818" y="267.636" style="fill:#E02753;" width="69.818" height="221.091"/>
	<path style="fill:#E02753;" d="M494.547,219.093l-11.639-32.911C454.173,196.343,391.48,208.456,256,208.456
		S57.827,196.343,29.092,186.182l-11.639,32.911c10.358,3.662,22.529,6.91,36.451,9.748v50.432h404.191v-50.432
		C472.017,226.003,484.189,222.756,494.547,219.093z"/>
</g>
<path style="fill:#C5142C;" d="M482.908,186.182C454.173,196.343,391.48,208.456,256,208.456v70.817h202.096v-50.432
	c13.922-2.838,26.093-6.086,36.451-9.748L482.908,186.182z"/>
<rect x="221.091" y="128" style="fill:#88888F;" width="69.818" height="93.089"/>
<rect x="256" y="128" style="fill:#797781;" width="34.909" height="93.089"/>
<g>
</g>
<g>
</g>
<g>
</g>
<g>
</g>
<g>
</g>
<g>
</g>
<g>
</g>
<g>
</g>
<g>
</g>
<g>
</g>
<g>
</g>
<g>
</g>
<g>
</g>
<g>
</g>
<g>
</g>
</svg>
